<mxfile host="Electron" modified="2024-01-23T19:04:18.457Z" agent="Mozilla/5.0 (Windows NT 10.0; Win64; x64) AppleWebKit/537.36 (KHTML, like Gecko) draw.io/22.0.3 Chrome/114.0.5735.289 Electron/25.8.4 Safari/537.36" etag="IO3mQSG0RIJ1NTxcfri1" version="22.0.3" type="device">
  <diagram name="Page-1" id="zZLcMRnP2OjOYDTEuCHH">
    <mxGraphModel dx="1886" dy="614" grid="1" gridSize="10" guides="1" tooltips="1" connect="1" arrows="1" fold="1" page="1" pageScale="1" pageWidth="850" pageHeight="1100" math="0" shadow="0">
      <root>
        <mxCell id="0" />
        <mxCell id="1" parent="0" />
        <mxCell id="YhZlr_3CMAO8eAw4d2fY-7" value="Program" style="whiteSpace=wrap;html=1;align=center;" parent="1" vertex="1">
          <mxGeometry x="100" y="290" width="100" height="40" as="geometry" />
        </mxCell>
        <mxCell id="YhZlr_3CMAO8eAw4d2fY-8" value="Student" style="whiteSpace=wrap;html=1;align=center;" parent="1" vertex="1">
          <mxGeometry x="605" y="350" width="100" height="40" as="geometry" />
        </mxCell>
        <mxCell id="YhZlr_3CMAO8eAw4d2fY-10" value="Course" style="whiteSpace=wrap;html=1;align=center;" parent="1" vertex="1">
          <mxGeometry x="100" y="490" width="100" height="40" as="geometry" />
        </mxCell>
        <mxCell id="YhZlr_3CMAO8eAw4d2fY-15" value="L_name" style="ellipse;whiteSpace=wrap;html=1;align=center;" parent="1" vertex="1">
          <mxGeometry x="580" y="192.5" width="70" height="35" as="geometry" />
        </mxCell>
        <mxCell id="YhZlr_3CMAO8eAw4d2fY-16" value="Phone" style="ellipse;whiteSpace=wrap;html=1;align=center;" parent="1" vertex="1">
          <mxGeometry x="660" y="192.5" width="70" height="35" as="geometry" />
        </mxCell>
        <mxCell id="YhZlr_3CMAO8eAw4d2fY-17" value="Email" style="ellipse;whiteSpace=wrap;html=1;align=center;" parent="1" vertex="1">
          <mxGeometry x="745" y="205" width="70" height="35" as="geometry" />
        </mxCell>
        <mxCell id="YhZlr_3CMAO8eAw4d2fY-18" value="Address" style="ellipse;whiteSpace=wrap;html=1;align=center;" parent="1" vertex="1">
          <mxGeometry x="785" y="265" width="70" height="35" as="geometry" />
        </mxCell>
        <mxCell id="YhZlr_3CMAO8eAw4d2fY-24" value="" style="endArrow=none;html=1;rounded=0;entryX=1;entryY=1;entryDx=0;entryDy=0;" parent="1" target="YhZlr_3CMAO8eAw4d2fY-61" edge="1">
          <mxGeometry width="50" height="50" relative="1" as="geometry">
            <mxPoint x="680" y="350" as="sourcePoint" />
            <mxPoint x="530" y="285" as="targetPoint" />
          </mxGeometry>
        </mxCell>
        <mxCell id="YhZlr_3CMAO8eAw4d2fY-25" value="" style="endArrow=none;html=1;rounded=0;exitX=0.75;exitY=0;exitDx=0;exitDy=0;" parent="1" source="YhZlr_3CMAO8eAw4d2fY-8" target="YhZlr_3CMAO8eAw4d2fY-16" edge="1">
          <mxGeometry width="50" height="50" relative="1" as="geometry">
            <mxPoint x="655" y="285" as="sourcePoint" />
            <mxPoint x="615" y="320" as="targetPoint" />
          </mxGeometry>
        </mxCell>
        <mxCell id="YhZlr_3CMAO8eAw4d2fY-26" value="" style="endArrow=none;html=1;rounded=0;entryX=1;entryY=1;entryDx=0;entryDy=0;exitX=0.75;exitY=0;exitDx=0;exitDy=0;" parent="1" source="YhZlr_3CMAO8eAw4d2fY-8" target="YhZlr_3CMAO8eAw4d2fY-60" edge="1">
          <mxGeometry width="50" height="50" relative="1" as="geometry">
            <mxPoint x="655" y="350" as="sourcePoint" />
            <mxPoint x="520" y="327.5" as="targetPoint" />
          </mxGeometry>
        </mxCell>
        <mxCell id="YhZlr_3CMAO8eAw4d2fY-27" value="" style="endArrow=none;html=1;rounded=0;entryX=0.5;entryY=1;entryDx=0;entryDy=0;exitX=0.75;exitY=0;exitDx=0;exitDy=0;" parent="1" source="YhZlr_3CMAO8eAw4d2fY-8" target="YhZlr_3CMAO8eAw4d2fY-17" edge="1">
          <mxGeometry width="50" height="50" relative="1" as="geometry">
            <mxPoint x="655" y="350" as="sourcePoint" />
            <mxPoint x="695" y="328" as="targetPoint" />
          </mxGeometry>
        </mxCell>
        <mxCell id="YhZlr_3CMAO8eAw4d2fY-28" value="" style="endArrow=none;html=1;rounded=0;entryX=0;entryY=1;entryDx=0;entryDy=0;exitX=0.75;exitY=0;exitDx=0;exitDy=0;" parent="1" source="YhZlr_3CMAO8eAw4d2fY-8" target="YhZlr_3CMAO8eAw4d2fY-18" edge="1">
          <mxGeometry width="50" height="50" relative="1" as="geometry">
            <mxPoint x="655" y="350" as="sourcePoint" />
            <mxPoint x="800" y="328" as="targetPoint" />
          </mxGeometry>
        </mxCell>
        <mxCell id="YhZlr_3CMAO8eAw4d2fY-30" value="" style="endArrow=none;html=1;rounded=0;entryX=0.5;entryY=1;entryDx=0;entryDy=0;" parent="1" target="YhZlr_3CMAO8eAw4d2fY-15" edge="1">
          <mxGeometry width="50" height="50" relative="1" as="geometry">
            <mxPoint x="680" y="350" as="sourcePoint" />
            <mxPoint x="695" y="328" as="targetPoint" />
          </mxGeometry>
        </mxCell>
        <mxCell id="YhZlr_3CMAO8eAw4d2fY-32" value="Takes" style="shape=rhombus;perimeter=rhombusPerimeter;whiteSpace=wrap;html=1;align=center;" parent="1" vertex="1">
          <mxGeometry x="300" y="470" width="120" height="60" as="geometry" />
        </mxCell>
        <mxCell id="YhZlr_3CMAO8eAw4d2fY-33" value="Contain" style="shape=rhombus;perimeter=rhombusPerimeter;whiteSpace=wrap;html=1;align=center;" parent="1" vertex="1">
          <mxGeometry x="90" y="370" width="120" height="60" as="geometry" />
        </mxCell>
        <mxCell id="YhZlr_3CMAO8eAw4d2fY-50" value="Course_ID" style="ellipse;whiteSpace=wrap;html=1;align=center;fontStyle=4;" parent="1" vertex="1">
          <mxGeometry x="20" y="570" width="80" height="30" as="geometry" />
        </mxCell>
        <mxCell id="YhZlr_3CMAO8eAw4d2fY-51" value="Course_name" style="ellipse;whiteSpace=wrap;html=1;align=center;" parent="1" vertex="1">
          <mxGeometry x="120" y="590" width="80" height="35" as="geometry" />
        </mxCell>
        <mxCell id="YhZlr_3CMAO8eAw4d2fY-54" value="" style="endArrow=none;html=1;rounded=0;entryX=0.5;entryY=1;entryDx=0;entryDy=0;exitX=0.5;exitY=0;exitDx=0;exitDy=0;" parent="1" source="YhZlr_3CMAO8eAw4d2fY-51" target="YhZlr_3CMAO8eAw4d2fY-10" edge="1">
          <mxGeometry width="50" height="50" relative="1" as="geometry">
            <mxPoint x="275" y="519.81" as="sourcePoint" />
            <mxPoint x="150" y="569.81" as="targetPoint" />
          </mxGeometry>
        </mxCell>
        <mxCell id="YhZlr_3CMAO8eAw4d2fY-55" value="" style="endArrow=none;html=1;rounded=0;exitX=1;exitY=0;exitDx=0;exitDy=0;entryX=0.5;entryY=1;entryDx=0;entryDy=0;" parent="1" source="YhZlr_3CMAO8eAw4d2fY-50" target="YhZlr_3CMAO8eAw4d2fY-10" edge="1">
          <mxGeometry width="50" height="50" relative="1" as="geometry">
            <mxPoint x="285" y="529.81" as="sourcePoint" />
            <mxPoint x="150" y="569.81" as="targetPoint" />
          </mxGeometry>
        </mxCell>
        <mxCell id="YhZlr_3CMAO8eAw4d2fY-56" value="" style="shape=link;html=1;rounded=0;exitX=0.5;exitY=1;exitDx=0;exitDy=0;entryX=0.5;entryY=0;entryDx=0;entryDy=0;" parent="1" source="YhZlr_3CMAO8eAw4d2fY-33" target="YhZlr_3CMAO8eAw4d2fY-10" edge="1">
          <mxGeometry relative="1" as="geometry">
            <mxPoint x="310" y="460" as="sourcePoint" />
            <mxPoint x="210" y="520" as="targetPoint" />
          </mxGeometry>
        </mxCell>
        <mxCell id="YhZlr_3CMAO8eAw4d2fY-57" value="M" style="resizable=0;html=1;whiteSpace=wrap;align=right;verticalAlign=bottom;" parent="YhZlr_3CMAO8eAw4d2fY-56" connectable="0" vertex="1">
          <mxGeometry x="1" relative="1" as="geometry">
            <mxPoint x="-10" as="offset" />
          </mxGeometry>
        </mxCell>
        <mxCell id="YhZlr_3CMAO8eAw4d2fY-58" value="" style="endArrow=none;html=1;rounded=0;exitX=0.5;exitY=0;exitDx=0;exitDy=0;entryX=0.5;entryY=1;entryDx=0;entryDy=0;" parent="1" source="YhZlr_3CMAO8eAw4d2fY-33" target="YhZlr_3CMAO8eAw4d2fY-7" edge="1">
          <mxGeometry relative="1" as="geometry">
            <mxPoint x="560" y="340" as="sourcePoint" />
            <mxPoint x="570" y="260" as="targetPoint" />
          </mxGeometry>
        </mxCell>
        <mxCell id="YhZlr_3CMAO8eAw4d2fY-59" value="1" style="resizable=0;html=1;whiteSpace=wrap;align=right;verticalAlign=bottom;" parent="YhZlr_3CMAO8eAw4d2fY-58" connectable="0" vertex="1">
          <mxGeometry x="1" relative="1" as="geometry">
            <mxPoint x="-10" y="20" as="offset" />
          </mxGeometry>
        </mxCell>
        <mxCell id="YhZlr_3CMAO8eAw4d2fY-60" value="Nat_ID" style="ellipse;whiteSpace=wrap;html=1;align=center;fontStyle=4;" parent="1" vertex="1">
          <mxGeometry x="480" y="265" width="80" height="30" as="geometry" />
        </mxCell>
        <mxCell id="YhZlr_3CMAO8eAw4d2fY-61" value="F_name" style="ellipse;whiteSpace=wrap;html=1;align=center;" parent="1" vertex="1">
          <mxGeometry x="510" y="215" width="70" height="35" as="geometry" />
        </mxCell>
        <mxCell id="YhZlr_3CMAO8eAw4d2fY-62" value="Street" style="ellipse;whiteSpace=wrap;html=1;align=center;" parent="1" vertex="1">
          <mxGeometry x="855" y="230" width="70" height="35" as="geometry" />
        </mxCell>
        <mxCell id="YhZlr_3CMAO8eAw4d2fY-63" value="City" style="ellipse;whiteSpace=wrap;html=1;align=center;" parent="1" vertex="1">
          <mxGeometry x="825" y="180" width="70" height="35" as="geometry" />
        </mxCell>
        <mxCell id="YhZlr_3CMAO8eAw4d2fY-64" value="" style="endArrow=none;html=1;rounded=0;entryX=0;entryY=1;entryDx=0;entryDy=0;exitX=0.5;exitY=0;exitDx=0;exitDy=0;" parent="1" source="YhZlr_3CMAO8eAw4d2fY-18" target="YhZlr_3CMAO8eAw4d2fY-63" edge="1">
          <mxGeometry width="50" height="50" relative="1" as="geometry">
            <mxPoint x="665" y="360" as="sourcePoint" />
            <mxPoint x="805" y="305" as="targetPoint" />
          </mxGeometry>
        </mxCell>
        <mxCell id="YhZlr_3CMAO8eAw4d2fY-65" value="" style="endArrow=none;html=1;rounded=0;entryX=0;entryY=1;entryDx=0;entryDy=0;exitX=0.5;exitY=0;exitDx=0;exitDy=0;" parent="1" source="YhZlr_3CMAO8eAw4d2fY-18" target="YhZlr_3CMAO8eAw4d2fY-62" edge="1">
          <mxGeometry width="50" height="50" relative="1" as="geometry">
            <mxPoint x="830" y="275" as="sourcePoint" />
            <mxPoint x="855" y="235" as="targetPoint" />
          </mxGeometry>
        </mxCell>
        <mxCell id="YhZlr_3CMAO8eAw4d2fY-66" value="Offers" style="shape=rhombus;perimeter=rhombusPerimeter;whiteSpace=wrap;html=1;align=center;" parent="1" vertex="1">
          <mxGeometry x="90" y="180" width="120" height="60" as="geometry" />
        </mxCell>
        <mxCell id="YhZlr_3CMAO8eAw4d2fY-67" value="Department" style="whiteSpace=wrap;html=1;align=center;" parent="1" vertex="1">
          <mxGeometry x="100" y="100" width="100" height="40" as="geometry" />
        </mxCell>
        <mxCell id="YhZlr_3CMAO8eAw4d2fY-68" value="" style="endArrow=none;html=1;rounded=0;exitX=0.5;exitY=0;exitDx=0;exitDy=0;" parent="1" source="YhZlr_3CMAO8eAw4d2fY-66" target="YhZlr_3CMAO8eAw4d2fY-67" edge="1">
          <mxGeometry relative="1" as="geometry">
            <mxPoint x="160" y="380" as="sourcePoint" />
            <mxPoint x="160" y="340" as="targetPoint" />
          </mxGeometry>
        </mxCell>
        <mxCell id="YhZlr_3CMAO8eAw4d2fY-69" value="1" style="resizable=0;html=1;whiteSpace=wrap;align=right;verticalAlign=bottom;" parent="YhZlr_3CMAO8eAw4d2fY-68" connectable="0" vertex="1">
          <mxGeometry x="1" relative="1" as="geometry">
            <mxPoint x="15" y="20" as="offset" />
          </mxGeometry>
        </mxCell>
        <mxCell id="YhZlr_3CMAO8eAw4d2fY-70" value="M" style="resizable=0;html=1;whiteSpace=wrap;align=right;verticalAlign=bottom;" parent="1" connectable="0" vertex="1">
          <mxGeometry x="175" y="170" as="geometry">
            <mxPoint x="-4" y="118" as="offset" />
          </mxGeometry>
        </mxCell>
        <mxCell id="YhZlr_3CMAO8eAw4d2fY-72" value="" style="endArrow=none;html=1;rounded=0;entryX=0.5;entryY=1;entryDx=0;entryDy=0;exitX=0.5;exitY=0;exitDx=0;exitDy=0;shape=link;" parent="1" source="YhZlr_3CMAO8eAw4d2fY-7" target="YhZlr_3CMAO8eAw4d2fY-66" edge="1">
          <mxGeometry width="50" height="50" relative="1" as="geometry">
            <mxPoint x="470" y="370" as="sourcePoint" />
            <mxPoint x="520" y="320" as="targetPoint" />
          </mxGeometry>
        </mxCell>
        <mxCell id="YhZlr_3CMAO8eAw4d2fY-78" value="Year" style="ellipse;whiteSpace=wrap;html=1;align=center;" parent="1" vertex="1">
          <mxGeometry x="230" y="580" width="70" height="40" as="geometry" />
        </mxCell>
        <mxCell id="YhZlr_3CMAO8eAw4d2fY-79" value="" style="endArrow=none;html=1;rounded=0;entryX=0.5;entryY=1;entryDx=0;entryDy=0;exitX=0.5;exitY=0;exitDx=0;exitDy=0;" parent="1" source="YhZlr_3CMAO8eAw4d2fY-78" target="YhZlr_3CMAO8eAw4d2fY-32" edge="1">
          <mxGeometry width="50" height="50" relative="1" as="geometry">
            <mxPoint x="310" y="444.80999999999995" as="sourcePoint" />
            <mxPoint x="390" y="455" as="targetPoint" />
          </mxGeometry>
        </mxCell>
        <mxCell id="YhZlr_3CMAO8eAw4d2fY-80" value="Semester" style="ellipse;whiteSpace=wrap;html=1;align=center;" parent="1" vertex="1">
          <mxGeometry x="310" y="600" width="70" height="40" as="geometry" />
        </mxCell>
        <mxCell id="YhZlr_3CMAO8eAw4d2fY-81" value="" style="endArrow=none;html=1;rounded=0;entryX=0.5;entryY=1;entryDx=0;entryDy=0;exitX=0.5;exitY=0;exitDx=0;exitDy=0;" parent="1" source="YhZlr_3CMAO8eAw4d2fY-80" target="YhZlr_3CMAO8eAw4d2fY-32" edge="1">
          <mxGeometry width="50" height="50" relative="1" as="geometry">
            <mxPoint x="290" y="529.81" as="sourcePoint" />
            <mxPoint x="180" y="560" as="targetPoint" />
          </mxGeometry>
        </mxCell>
        <mxCell id="YhZlr_3CMAO8eAw4d2fY-82" value="Grade" style="ellipse;whiteSpace=wrap;html=1;align=center;" parent="1" vertex="1">
          <mxGeometry x="400" y="590" width="70" height="40" as="geometry" />
        </mxCell>
        <mxCell id="YhZlr_3CMAO8eAw4d2fY-83" value="" style="endArrow=none;html=1;rounded=0;entryX=0.5;entryY=1;entryDx=0;entryDy=0;exitX=0.5;exitY=0;exitDx=0;exitDy=0;" parent="1" source="YhZlr_3CMAO8eAw4d2fY-82" target="YhZlr_3CMAO8eAw4d2fY-32" edge="1">
          <mxGeometry width="50" height="50" relative="1" as="geometry">
            <mxPoint x="390" y="499.80999999999995" as="sourcePoint" />
            <mxPoint x="280" y="530" as="targetPoint" />
          </mxGeometry>
        </mxCell>
        <mxCell id="YhZlr_3CMAO8eAw4d2fY-88" value="" style="endArrow=none;html=1;rounded=0;exitX=1;exitY=0.5;exitDx=0;exitDy=0;entryX=0.5;entryY=1;entryDx=0;entryDy=0;" parent="1" source="YhZlr_3CMAO8eAw4d2fY-32" target="YhZlr_3CMAO8eAw4d2fY-8" edge="1">
          <mxGeometry relative="1" as="geometry">
            <mxPoint x="420" y="360" as="sourcePoint" />
            <mxPoint x="160" y="10" as="targetPoint" />
          </mxGeometry>
        </mxCell>
        <mxCell id="YhZlr_3CMAO8eAw4d2fY-90" value="" style="endArrow=none;html=1;rounded=0;exitX=1;exitY=0.5;exitDx=0;exitDy=0;entryX=0;entryY=0.5;entryDx=0;entryDy=0;" parent="1" source="YhZlr_3CMAO8eAw4d2fY-10" target="YhZlr_3CMAO8eAw4d2fY-32" edge="1">
          <mxGeometry relative="1" as="geometry">
            <mxPoint x="430" y="510" as="sourcePoint" />
            <mxPoint x="615" y="520" as="targetPoint" />
          </mxGeometry>
        </mxCell>
        <mxCell id="YhZlr_3CMAO8eAw4d2fY-91" value="Dep_ID" style="ellipse;whiteSpace=wrap;html=1;align=center;fontStyle=4;" parent="1" vertex="1">
          <mxGeometry x="50" y="30" width="80" height="30" as="geometry" />
        </mxCell>
        <mxCell id="YhZlr_3CMAO8eAw4d2fY-92" value="Dep_Name" style="ellipse;whiteSpace=wrap;html=1;align=center;" parent="1" vertex="1">
          <mxGeometry x="160" y="27.5" width="80" height="35" as="geometry" />
        </mxCell>
        <mxCell id="YhZlr_3CMAO8eAw4d2fY-93" value="" style="endArrow=none;html=1;rounded=0;entryX=0.5;entryY=1;entryDx=0;entryDy=0;exitX=0.75;exitY=0;exitDx=0;exitDy=0;" parent="1" source="YhZlr_3CMAO8eAw4d2fY-67" target="YhZlr_3CMAO8eAw4d2fY-92" edge="1">
          <mxGeometry width="50" height="50" relative="1" as="geometry">
            <mxPoint x="340" y="250" as="sourcePoint" />
            <mxPoint x="390" y="200" as="targetPoint" />
          </mxGeometry>
        </mxCell>
        <mxCell id="YhZlr_3CMAO8eAw4d2fY-94" value="" style="endArrow=none;html=1;rounded=0;exitX=0.25;exitY=0;exitDx=0;exitDy=0;" parent="1" source="YhZlr_3CMAO8eAw4d2fY-67" edge="1">
          <mxGeometry width="50" height="50" relative="1" as="geometry">
            <mxPoint x="40" y="110" as="sourcePoint" />
            <mxPoint x="90" y="60" as="targetPoint" />
          </mxGeometry>
        </mxCell>
        <mxCell id="YhZlr_3CMAO8eAw4d2fY-95" value="Enroll" style="shape=rhombus;perimeter=rhombusPerimeter;whiteSpace=wrap;html=1;align=center;" parent="1" vertex="1">
          <mxGeometry x="310" y="270" width="120" height="60" as="geometry" />
        </mxCell>
        <mxCell id="YhZlr_3CMAO8eAw4d2fY-96" value="" style="endArrow=none;html=1;rounded=0;entryX=1;entryY=0.5;entryDx=0;entryDy=0;exitX=0;exitY=0.5;exitDx=0;exitDy=0;" parent="1" source="YhZlr_3CMAO8eAw4d2fY-95" target="YhZlr_3CMAO8eAw4d2fY-7" edge="1">
          <mxGeometry width="50" height="50" relative="1" as="geometry">
            <mxPoint x="260" y="370" as="sourcePoint" />
            <mxPoint x="220" y="410" as="targetPoint" />
          </mxGeometry>
        </mxCell>
        <mxCell id="YhZlr_3CMAO8eAw4d2fY-97" value="" style="endArrow=none;html=1;rounded=0;entryX=1;entryY=0.5;entryDx=0;entryDy=0;exitX=0;exitY=0.5;exitDx=0;exitDy=0;shape=link;" parent="1" source="YhZlr_3CMAO8eAw4d2fY-8" target="YhZlr_3CMAO8eAw4d2fY-95" edge="1">
          <mxGeometry width="50" height="50" relative="1" as="geometry">
            <mxPoint x="295" y="295" as="sourcePoint" />
            <mxPoint x="210" y="320" as="targetPoint" />
          </mxGeometry>
        </mxCell>
        <mxCell id="YhZlr_3CMAO8eAw4d2fY-100" value="M" style="resizable=0;html=1;whiteSpace=wrap;align=right;verticalAlign=bottom;" parent="1" connectable="0" vertex="1">
          <mxGeometry x="175" y="499.9999999999998" as="geometry">
            <mxPoint x="42" y="4" as="offset" />
          </mxGeometry>
        </mxCell>
        <mxCell id="YhZlr_3CMAO8eAw4d2fY-101" value="N" style="resizable=0;html=1;whiteSpace=wrap;align=right;verticalAlign=bottom;" parent="1" connectable="0" vertex="1">
          <mxGeometry x="150" y="509.9999999999998" as="geometry">
            <mxPoint x="480" y="-104" as="offset" />
          </mxGeometry>
        </mxCell>
        <mxCell id="YhZlr_3CMAO8eAw4d2fY-102" value="1" style="resizable=0;html=1;whiteSpace=wrap;align=right;verticalAlign=bottom;" parent="1" connectable="0" vertex="1">
          <mxGeometry x="223" y="302.9999999999998" as="geometry" />
        </mxCell>
        <mxCell id="YhZlr_3CMAO8eAw4d2fY-103" value="M" style="resizable=0;html=1;whiteSpace=wrap;align=right;verticalAlign=bottom;" parent="1" connectable="0" vertex="1">
          <mxGeometry x="600" y="359.9999999999998" as="geometry" />
        </mxCell>
        <mxCell id="YhZlr_3CMAO8eAw4d2fY-104" value="Program_ID" style="ellipse;whiteSpace=wrap;html=1;align=center;fontStyle=4;" parent="1" vertex="1">
          <mxGeometry x="-30" y="261.5" width="90" height="37" as="geometry" />
        </mxCell>
        <mxCell id="YhZlr_3CMAO8eAw4d2fY-105" value="Program_name" style="ellipse;whiteSpace=wrap;html=1;align=center;" parent="1" vertex="1">
          <mxGeometry x="-25" y="310" width="90" height="40" as="geometry" />
        </mxCell>
        <mxCell id="YhZlr_3CMAO8eAw4d2fY-108" value="" style="endArrow=none;html=1;rounded=0;entryX=1;entryY=0.5;entryDx=0;entryDy=0;exitX=0;exitY=0.25;exitDx=0;exitDy=0;" parent="1" source="YhZlr_3CMAO8eAw4d2fY-7" target="YhZlr_3CMAO8eAw4d2fY-104" edge="1">
          <mxGeometry width="50" height="50" relative="1" as="geometry">
            <mxPoint x="230" y="380" as="sourcePoint" />
            <mxPoint x="280" y="330" as="targetPoint" />
          </mxGeometry>
        </mxCell>
        <mxCell id="YhZlr_3CMAO8eAw4d2fY-109" value="" style="endArrow=none;html=1;rounded=0;entryX=1;entryY=0.5;entryDx=0;entryDy=0;" parent="1" target="YhZlr_3CMAO8eAw4d2fY-105" edge="1">
          <mxGeometry width="50" height="50" relative="1" as="geometry">
            <mxPoint x="100" y="320" as="sourcePoint" />
            <mxPoint x="70" y="302" as="targetPoint" />
          </mxGeometry>
        </mxCell>
        <mxCell id="ck8nnTp9wwWWzlruzNE6-1" value="&lt;div style=&quot;font-size: 24px;&quot;&gt;&lt;font style=&quot;font-size: 24px;&quot;&gt;&lt;br&gt;&lt;/font&gt;&lt;/div&gt;&lt;div style=&quot;font-size: 24px;&quot;&gt;&lt;font style=&quot;font-size: 24px;&quot;&gt;&lt;br&gt;&lt;/font&gt;&lt;/div&gt;&lt;div style=&quot;font-size: 24px;&quot;&gt;&lt;font style=&quot;font-size: 24px;&quot;&gt;&lt;br&gt;&lt;/font&gt;&lt;/div&gt;&lt;div style=&quot;font-size: 24px;&quot;&gt;&lt;font style=&quot;font-size: 24px;&quot;&gt;The Design already in the (3NF)&lt;/font&gt;&lt;/div&gt;&lt;div style=&quot;font-size: 21px;&quot;&gt;&lt;font style=&quot;font-size: 21px;&quot;&gt;&lt;br&gt;&lt;/font&gt;&lt;/div&gt;&lt;div style=&quot;font-size: 21px;&quot;&gt;&lt;font style=&quot;font-size: 21px;&quot;&gt;Department(&lt;u&gt;Dep_ID&lt;/u&gt;, Dep_Name&lt;/font&gt;&lt;span style=&quot;background-color: initial;&quot;&gt;)&lt;/span&gt;&lt;/div&gt;&lt;div style=&quot;font-size: 21px;&quot;&gt;&lt;span style=&quot;background-color: initial;&quot;&gt;&lt;br&gt;&lt;/span&gt;&lt;/div&gt;&lt;div style=&quot;font-size: 21px;&quot;&gt;&lt;div style=&quot;border-color: var(--border-color);&quot;&gt;&lt;font style=&quot;border-color: var(--border-color);&quot;&gt;Student(&lt;u&gt;Nat_ID&lt;/u&gt;, F_Name, L_Name,Gender, Phone, Email, City, Street,DOB, Prog_ID &lt;b&gt;FK&lt;/b&gt;&lt;/font&gt;&lt;span style=&quot;background-color: initial;&quot;&gt;)&lt;/span&gt;&lt;/div&gt;&lt;/div&gt;&lt;div style=&quot;font-size: 21px;&quot;&gt;&lt;font style=&quot;font-size: 21px;&quot;&gt;&lt;br&gt;&lt;/font&gt;&lt;/div&gt;&lt;div style=&quot;font-size: 21px;&quot;&gt;&lt;font style=&quot;font-size: 21px;&quot;&gt;Program(&lt;u&gt;Prog_ID&lt;/u&gt;, Prog_Name,Dep_ID &lt;b&gt;FK&lt;/b&gt;)&lt;/font&gt;&lt;/div&gt;&lt;div style=&quot;font-size: 21px;&quot;&gt;&lt;font style=&quot;font-size: 21px;&quot;&gt;&lt;br&gt;&lt;/font&gt;&lt;/div&gt;&lt;div style=&quot;font-size: 21px;&quot;&gt;&lt;font style=&quot;font-size: 21px;&quot;&gt;Course(&lt;u&gt;Course_ID&lt;/u&gt;, Course_Name,Prog_ID&amp;nbsp;&lt;b style=&quot;border-color: var(--border-color);&quot;&gt;FK &lt;/b&gt;)&lt;/font&gt;&lt;/div&gt;&lt;div style=&quot;font-size: 21px;&quot;&gt;&lt;font style=&quot;font-size: 21px;&quot;&gt;&lt;br&gt;&lt;/font&gt;&lt;/div&gt;&lt;div style=&quot;font-size: 21px;&quot;&gt;&lt;font style=&quot;font-size: 21px;&quot;&gt;Student_Course(&lt;u&gt;Nat_ID &lt;b&gt;FK&lt;/b&gt;,Course_ID &lt;b&gt;FK&lt;/b&gt; ,Year , Semester&lt;/u&gt;&amp;nbsp;, Grade )&lt;/font&gt;&lt;/div&gt;" style="text;html=1;align=left;verticalAlign=middle;resizable=0;points=[];autosize=1;strokeColor=none;fillColor=none;" parent="1" vertex="1">
          <mxGeometry x="20" y="675" width="860" height="380" as="geometry" />
        </mxCell>
        <mxCell id="ck8nnTp9wwWWzlruzNE6-2" value="Gender" style="ellipse;whiteSpace=wrap;html=1;align=center;" parent="1" vertex="1">
          <mxGeometry x="855" y="310" width="70" height="40" as="geometry" />
        </mxCell>
        <mxCell id="ck8nnTp9wwWWzlruzNE6-3" value="" style="endArrow=none;html=1;rounded=0;entryX=0;entryY=0.5;entryDx=0;entryDy=0;" parent="1" target="ck8nnTp9wwWWzlruzNE6-2" edge="1">
          <mxGeometry width="50" height="50" relative="1" as="geometry">
            <mxPoint x="680" y="350" as="sourcePoint" />
            <mxPoint x="865" y="325" as="targetPoint" />
          </mxGeometry>
        </mxCell>
      </root>
    </mxGraphModel>
  </diagram>
</mxfile>
